<?xml version="1.0" encoding="UTF-8" standalone="no"?>
<!-- Created with Inkscape (http://www.inkscape.org/) -->

<svg
   xmlns:dc="http://purl.org/dc/elements/1.1/"
   xmlns:cc="http://creativecommons.org/ns#"
   xmlns:rdf="http://www.w3.org/1999/02/22-rdf-syntax-ns#"
   xmlns:svg="http://www.w3.org/2000/svg"
   xmlns="http://www.w3.org/2000/svg"
   xmlns:sodipodi="http://sodipodi.sourceforge.net/DTD/sodipodi-0.dtd"
   xmlns:inkscape="http://www.inkscape.org/namespaces/inkscape"
   width="315"
   height="180"
   id="svg2"
   version="1.1"
   inkscape:version="0.48.4 r9939"
   sodipodi:docname="lost.svg"
   inkscape:export-filename="/media/gfshare/gfk/lost.png"
   inkscape:export-xdpi="228.57001"
   inkscape:export-ydpi="228.57001">
  <defs
     id="defs4">
    <linearGradient
       id="linearGradient3952">
      <stop
         style="stop-color:#000000;stop-opacity:1;"
         offset="0"
         id="stop3954" />
      <stop
         style="stop-color:#d31b10;stop-opacity:1;"
         offset="1"
         id="stop3956" />
    </linearGradient>
    <linearGradient
       id="linearGradient3944">
      <stop
         style="stop-color:#000000;stop-opacity:1;"
         offset="0"
         id="stop3946" />
      <stop
         style="stop-color:#000000;stop-opacity:1;"
         offset="1"
         id="stop3948" />
    </linearGradient>
  </defs>
  <sodipodi:namedview
     id="base"
     pagecolor="#ffffff"
     bordercolor="#666666"
     borderopacity="1.0"
     inkscape:pageopacity="1"
     inkscape:pageshadow="2"
     inkscape:zoom="2.8284271"
     inkscape:cx="129.33316"
     inkscape:cy="55.359192"
     inkscape:document-units="px"
     inkscape:current-layer="layer1"
     showgrid="false"
     units="in"
     showguides="true"
     inkscape:guide-bbox="true"
     inkscape:window-width="1920"
     inkscape:window-height="1066"
     inkscape:window-x="1920"
     inkscape:window-y="14"
     inkscape:window-maximized="0">
    <inkscape:grid
       type="xygrid"
       id="grid3050"
       empspacing="5"
       visible="true"
       enabled="true"
       snapvisiblegridlinesonly="true"
       units="in"
       spacingx="0.0312in"
       spacingy="0.0312in"
       dotted="false" />
  </sodipodi:namedview>
  <metadata
     id="metadata7">
    <rdf:RDF>
      <cc:Work
         rdf:about="">
        <dc:format>image/svg+xml</dc:format>
        <dc:type
           rdf:resource="http://purl.org/dc/dcmitype/StillImage" />
        <dc:title></dc:title>
      </cc:Work>
    </rdf:RDF>
  </metadata>
  <g
     inkscape:label="Layer 1"
     inkscape:groupmode="layer"
     id="layer1"
     transform="translate(0,-872.35975)"
     style="display:inline">
    <flowRoot
       xml:space="preserve"
       id="flowRoot3052"
       style="font-size:12px;font-style:normal;font-weight:normal;line-height:125%;letter-spacing:0px;word-spacing:0px;fill:#000000;fill-opacity:1;stroke:none;font-family:Sans"
       transform="translate(-105.71246,872.35975)"><flowRegion
         id="flowRegion3054"><rect
           id="rect3056"
           width="128.28937"
           height="76.013977"
           x="175.00893"
           y="92.36927"
           style="font-size:12px" /></flowRegion><flowPara
         id="flowPara3058" /></flowRoot>    <g
       id="g3265">
      <path
         sodipodi:nodetypes="cccccccc"
         inkscape:connector-curvature="0"
         id="path3976"
         d="m 48.776595,944.71903 19.61203,24.38317 11.67601,0.26795 2.4629,-4.37647 c -1.99575,-7.34803 -0.62597,-7.83771 -8.48334,-20.54259 l 9.48675,-16.79135 -16.32816,-5.35893 z"
         style="fill:#000000;fill-opacity:1;stroke:#000000;stroke-width:0.89999998;stroke-linecap:round;stroke-linejoin:round;stroke-miterlimit:4;stroke-opacity:1;stroke-dasharray:none" />
      <path
         sodipodi:nodetypes="cscscc"
         inkscape:connector-curvature="0"
         id="path3113"
         d="m 14.520585,950.22239 c 0,0 -8.0703897,-10.30159 2.83806,-28.67269 6.45014,-10.86278 10.53406,-10.25605 18.95859,-14.04594 2.13542,-2.28391 8.6793,-18.05589 21.29028,-20.816 10.96524,-2.39992 10.70723,20.96769 10.70723,20.96769 -32.91957,1.48835 -36.74587,21.65819 -53.79416,42.56694 z"
         style="fill:#d3a500;fill-opacity:1;stroke:#000000;stroke-width:0.45492136;stroke-linecap:round;stroke-linejoin:round;stroke-miterlimit:4;stroke-opacity:1;stroke-dasharray:none" />
      <path
         sodipodi:nodetypes="ccsccc"
         inkscape:connector-curvature="0"
         id="path5340"
         d="m 68.228605,1011.8674 c 1.94536,4.7409 1.59389,8.8987 0.21744,12.7094 -0.97008,2.0061 -1.81016,2.9635 -7.3697,2.6365 -9.21434,-0.542 -11.31371,-0.044 -11.31371,-0.044 l 0.7955,-11.5347 c 0,0 13.334,-8.311 17.67047,-3.767 z"
         style="fill:#000000;fill-opacity:1;stroke:#000000;stroke-width:0.44999999;stroke-linecap:round;stroke-linejoin:round;stroke-miterlimit:4;stroke-opacity:1;stroke-dasharray:none" />
      <path
         sodipodi:nodetypes="cccssssssc"
         inkscape:connector-curvature="0"
         id="path3936"
         d="m 37.225075,999.48384 c -2.87816,0.3391 -4.2338,1.87076 -5.41812,3.53676 l 5.80513,18.694 c -0.002,0.013 17.27225,2.5984 25.79105,2.5257 2.45213,-0.021 5.79848,-1.2894 6.07264,-4.673 0.41826,-5.1619 -1.36724,-11.2564 -4.6441,-12.6311 -2.3414,-0.9822 -7.57587,0.2088 -8.84676,0.6828 -2.54917,0.9508 -5.7561,0.3161 -8.05261,-2.4512 -1.52655,-1.8394 -3.01606,-5.6534 -4.17104,-5.658 z"
         style="fill:#d31b10;fill-opacity:1;stroke:#000000;stroke-width:0.45492136;stroke-linecap:round;stroke-linejoin:round;stroke-miterlimit:4;stroke-opacity:1;stroke-dasharray:none" />
      <path
         sodipodi:nodetypes="ccsscccc"
         inkscape:connector-curvature="0"
         id="path5338"
         d="m 20.322725,1026.4765 c -0.0199,0.3894 -0.0129,4.0853 0.007,4.5817 1.57514,2.2098 5.78373,5.6258 10.27449,7.5477 5.11673,2.1899 12.01668,3.7258 16.90806,2.8973 3.01986,-0.5116 6.39719,-1.8315 8.61472,-4.3462 0.60165,-3.0156 0.21545,-6.0657 0.21545,-6.0657 -12.34232,-1.487 -23.65651,-3.5315 -36.0193,-4.6148 z"
         style="fill:#000000;fill-opacity:1;stroke:#000000;stroke-width:0.44999999;stroke-linecap:round;stroke-linejoin:round;stroke-miterlimit:4;stroke-opacity:1;stroke-dasharray:none" />
      <path
         sodipodi:nodetypes="szzzszcs"
         inkscape:connector-curvature="0"
         id="path3914"
         d="m 23.292775,1004.6626 c 1.8731,-2.8949 7.33213,-2.7891 10.44922,-1.0105 3.1171,1.7786 0.83288,7.5375 3.99909,10.6102 3.16621,3.0726 12.36275,0.3133 14.83532,5.4314 2.47257,5.118 3.94027,9.2643 3.87008,13.01 -0.0548,2.9255 -7.39148,6.5353 -14.1903,6.1893 -6.79883,-0.3461 -18.20084,-4.9676 -21.93048,-12.3785 0.0369,-17.4541 0.95521,-18.7425 2.96707,-21.8519 z"
         style="fill:#d31b10;fill-opacity:1;stroke:#000000;stroke-width:0.45492136;stroke-linecap:round;stroke-linejoin:round;stroke-miterlimit:4;stroke-opacity:1;stroke-dasharray:none" />
      <path
         sodipodi:nodetypes="ccccc"
         inkscape:connector-curvature="0"
         id="path3912"
         d="m 26.904855,988.99999 -1.29003,17.05201 c 1.95896,0.7859 4.16075,1.2152 7.48216,0 l -0.51601,-13.13636 z"
         style="fill:#ebc799;fill-opacity:1;stroke:#000000;stroke-width:0.45492136;stroke-linecap:round;stroke-linejoin:round;stroke-miterlimit:4;stroke-opacity:1;stroke-dasharray:none" />
      <path
         sodipodi:nodetypes="ccccc"
         inkscape:connector-curvature="0"
         id="path3934"
         d="m 37.096075,996.8313 -0.77402,4.042 c 1.84586,2.2143 4.13761,2.0727 5.93413,0.7578 l -0.38701,-3.41038 z"
         style="fill:#ebc799;fill-opacity:1;stroke:#000000;stroke-width:0.45492136;stroke-linecap:round;stroke-linejoin:round;stroke-miterlimit:4;stroke-opacity:1;stroke-dasharray:none" />
      <path
         sodipodi:nodetypes="ccccc"
         inkscape:connector-curvature="0"
         id="path3962"
         d="m 71.539045,940.6814 c 0.77447,0.81556 1.42716,1.61038 3.22584,3.85698 3.76932,-4.49788 8.12251,-8.88911 12.38427,-14.02057 l -7.35316,-0.75787 c -2.88311,4.41689 -5.03468,7.16874 -8.25695,10.92146 z"
         style="fill:#d31b10;fill-opacity:1;stroke:#000000;stroke-width:0.45492136;stroke-linecap:round;stroke-linejoin:round;stroke-miterlimit:4;stroke-opacity:1;stroke-dasharray:none" />
      <path
         sodipodi:nodetypes="cccsssc"
         inkscape:connector-curvature="0"
         id="path3894"
         d="m 23.414305,933.07241 c -0.0645,5.68401 13.16575,16.89736 16.26182,17.14998 5.41812,4.29459 9.90461,40.1553 33.02472,41.17752 -4.1066,6.6863 -7.32737,8.94929 -10.96524,9.59969 -9.62369,1.7204 -23.43191,4.2221 -36.8948,-11.74699 -7.05372,-8.36681 -13.40069,-18.1491 -12.51327,-30.06211 0.68538,-9.2008 5.73315,-14.11851 11.08677,-26.11809 z"
         style="fill:#0b1ba9;fill-opacity:1;stroke:#000000;stroke-width:0.45492136;stroke-linecap:round;stroke-linejoin:round;stroke-miterlimit:4;stroke-opacity:1;stroke-dasharray:none" />
      <path
         sodipodi:nodetypes="ccsccc"
         inkscape:connector-curvature="0"
         id="path3887"
         d="m 22.260745,935.57027 c 6.06314,10.73647 13.41629,14.90474 15.60934,15.40999 -0.90302,-3.15779 1.03202,-6.31557 6.06313,-12.25221 2.4017,-2.83397 18.79278,-26.72144 31.34768,-27.91481 0.14804,-4.41766 -4.79181,-9.24627 -15.99634,-3.15779 -9.73565,-5.02141 -22.57549,-6.82081 -37.02381,27.91482 z"
         style="fill:#ebc799;fill-opacity:1;stroke:#000000;stroke-width:0.45492136;stroke-linecap:round;stroke-linejoin:round;stroke-miterlimit:4;stroke-opacity:1;stroke-dasharray:none" />
      <path
         sodipodi:nodetypes="csssccsscc"
         inkscape:connector-curvature="0"
         id="path3938"
         d="m 50.254355,944.53838 c 0,0 11.04654,16.53165 19.09241,22.10449 2.17767,1.50833 4.87762,3.3427 7.48217,2.77885 2.40501,-0.52065 4.64764,-2.81984 5.16011,-5.17876 1.49741,-6.89274 -7.48216,-19.83089 -7.48216,-19.83089 0,0 10.57241,16.15843 8.64318,22.88186 0.65084,5.83926 -0.14905,7.25931 -2.06404,8.82229 -2.70849,2.21064 -11.59692,1.36588 -14.83532,0 -9.94543,-4.19472 -19.22142,-26.02014 -19.22142,-26.02014 z"
         style="fill:#ffffff;fill-opacity:1;stroke:#000000;stroke-width:0.45492136;stroke-linecap:round;stroke-linejoin:round;stroke-miterlimit:4;stroke-opacity:1;stroke-dasharray:none" />
      <path
         sodipodi:nodetypes="csssscc"
         inkscape:connector-curvature="0"
         id="path3940"
         d="m 68.572755,925.21273 3.48307,4.04197 c 1.49228,1.73173 4.58244,3.01205 7.61117,3.66303 2.62634,0.56449 4.80652,0.67062 5.67612,-0.25262 2.37399,-2.52043 4.67697,-6.01079 4.5684,-7.86894 l -0.1823,-3.12015 c -7.32343,-2.40694 -14.5149,-3.06946 -21.15646,3.53671 z"
         style="fill:#ffffff;fill-opacity:1;stroke:#000000;stroke-width:0.45492136;stroke-linecap:round;stroke-linejoin:round;stroke-miterlimit:4;stroke-opacity:1;stroke-dasharray:none" />
      <path
         sodipodi:nodetypes="ccsssscsscc"
         inkscape:connector-curvature="0"
         id="path3892"
         d="m 82.118045,911.44479 c 6.45398,1.48256 11.94639,5.86502 7.56029,14.70682 1.38314,-7.31179 -13.01398,-4.7256 -17.62251,-1.69674 -4.8587,3.19327 -22.70449,22.86236 -22.44648,25.38859 0.24389,2.388 9.2882,14.14687 13.15828,17.8099 3.87009,3.66303 8.90119,7.705 12.38427,7.45238 3.48308,-0.25263 6.83715,-2.52623 7.99817,-7.83131 1.54804,3.78934 5.80513,16.04155 -8.51418,24.12548 -15.90293,8.97799 -31.22426,-24.34699 -37.2658,-39.90916 -2.16335,-5.57248 18.03459,-27.96633 25.78455,-34.86719 7.12342,-6.68241 13.67046,-6.4087 18.96341,-5.17877 z"
         style="fill:#d31b10;fill-opacity:1;stroke:#000000;stroke-width:0.45492136;stroke-linecap:round;stroke-linejoin:round;stroke-miterlimit:4;stroke-opacity:1;stroke-dasharray:none" />
      <path
         inkscape:connector-curvature="0"
         id="path3890"
         d="m 47.029285,910.81324 c 5.16011,-2.02099 8.38518,-2.52623 8.38518,-2.52623"
         style="fill:none;stroke:#000000;stroke-width:0.90984273;stroke-linecap:round;stroke-linejoin:round;stroke-miterlimit:4;stroke-opacity:1;stroke-dasharray:none" />
      <path
         sodipodi:nodetypes="czzcc"
         inkscape:connector-curvature="0"
         id="path3898"
         d="m 30.000915,986.85269 c 0,0 5.07963,7.05546 11.09424,9.72598 6.01461,2.67053 9.64415,1.85279 14.19031,0 4.54616,-1.85278 2.33436,-9.25681 -18.96341,-21.47293 z"
         style="fill:#ebc799;fill-opacity:1;stroke:#000000;stroke-width:0.45492136;stroke-linecap:round;stroke-linejoin:round;stroke-miterlimit:4;stroke-opacity:1;stroke-dasharray:none" />
      <path
         sodipodi:nodetypes="ccssssssc"
         inkscape:connector-curvature="0"
         id="path3896"
         d="m 30.903935,988.36843 c 1.61271,-4.33139 7.67838,-10.17386 9.41721,-11.1154 0.0618,-3.84672 -4.10367,-3.33459 -5.41812,-6.82082 -1.31445,-3.48623 1.26016,-9.27562 -0.64502,-13.64163 -1.90517,-4.366 -7.23643,-10.16009 -10.44922,-10.73647 -2.00657,-0.35998 -2.6116,-0.22222 -4.12809,1.64205 -2.1874,2.68905 -4.40916,10.24909 -4.3861,15.66262 0.0211,4.94477 1.52221,10.0375 4.12809,14.27318 2.73071,4.43858 6.64348,9.38385 11.48125,10.73647 z"
         style="fill:#0b1ba9;fill-opacity:1;stroke:#000000;stroke-width:0.45492136;stroke-linecap:round;stroke-linejoin:round;stroke-miterlimit:4;stroke-opacity:1;stroke-dasharray:none" />
      <path
         sodipodi:nodetypes="cc"
         inkscape:connector-curvature="0"
         id="path3900"
         d="m 46.513275,987.23162 c 4.03818,2.23237 7.70795,2.99392 9.37038,3.17198"
         style="fill:none;stroke:#000000;stroke-width:0.45492136;stroke-linecap:round;stroke-linejoin:round;stroke-miterlimit:4;stroke-opacity:1;stroke-dasharray:none;display:inline" />
      <path
         sodipodi:nodetypes="cc"
         inkscape:connector-curvature="0"
         id="path3902"
         d="m 44.062225,990.01048 c 6.05192,2.20942 8.31954,3.04977 13.03059,3.62163"
         style="fill:none;stroke:#000000;stroke-width:0.45492136;stroke-linecap:round;stroke-linejoin:round;stroke-miterlimit:4;stroke-opacity:1;stroke-dasharray:none;display:inline" />
      <path
         sodipodi:nodetypes="cc"
         inkscape:connector-curvature="0"
         id="path3904"
         d="m 42.514185,992.53671 c 4.74399,2.33555 8.70017,2.41691 13.76443,3.31666"
         style="fill:none;stroke:#000000;stroke-width:0.45492136;stroke-linecap:round;stroke-linejoin:round;stroke-miterlimit:4;stroke-opacity:1;stroke-dasharray:none;display:inline" />
      <path
         sodipodi:nodetypes="cc"
         inkscape:connector-curvature="0"
         id="path3906"
         d="m 41.482165,994.93662 c 2.16547,0.70285 4.034,2.18817 11.03613,2.63562"
         style="fill:none;stroke:#000000;stroke-width:0.45492136;stroke-linecap:round;stroke-linejoin:round;stroke-miterlimit:4;stroke-opacity:1;stroke-dasharray:none;display:inline" />
      <path
         sodipodi:nodetypes="cc"
         inkscape:connector-curvature="0"
         id="path5342"
         d="m 36.603825,907.15979 c -3.41915,5.59677 -4.16175,7.53869 -6.59598,12.82736"
         style="fill:none;stroke:#000000;stroke-width:0.44999999;stroke-linecap:round;stroke-linejoin:round;stroke-miterlimit:4;stroke-opacity:1;stroke-dasharray:none" />
    </g>
    <text
       xml:space="preserve"
       style="font-size:48px;font-style:normal;font-variant:normal;font-weight:bold;font-stretch:normal;line-height:125%;letter-spacing:0px;word-spacing:0px;fill:#000000;fill-opacity:1;stroke:none;font-family:'Terminus (TTF)';-inkscape-font-specification:'Terminus (TTF) Bold'"
       x="103.9447"
       y="917.29535"
       id="text3225"
       sodipodi:linespacing="125%"><tspan
         sodipodi:role="line"
         id="tspan3227"
         x="103.9447"
         y="917.29535">Hello</tspan></text>
    <text
       xml:space="preserve"
       style="font-size:10px;font-style:normal;font-variant:normal;font-weight:500;font-stretch:normal;line-height:125%;letter-spacing:0px;word-spacing:0px;fill:#000000;fill-opacity:1;stroke:none;font-family:'Terminus (TTF)';-inkscape-font-specification:'Terminus (TTF) Medium'"
       x="104.4927"
       y="954.17175"
       id="text3229"
       sodipodi:linespacing="125%"><tspan
         sodipodi:role="line"
         x="104.4927"
         y="954.17175"
         id="tspan3239">I am lost.  If you could be so kind as</tspan><tspan
         sodipodi:role="line"
         x="104.4927"
         y="966.67175"
         id="tspan3235">to return me to my owner, I would be </tspan><tspan
         sodipodi:role="line"
         x="104.4927"
         y="979.17175"
         id="tspan3309">forever grateful.</tspan></text>
    <text
       xml:space="preserve"
       style="font-size:18px;font-style:normal;font-variant:normal;font-weight:500;font-stretch:normal;line-height:125%;letter-spacing:0px;word-spacing:0px;fill:#000000;fill-opacity:1;stroke:none;font-family:'Terminus (TTF)';-inkscape-font-specification:'Terminus (TTF) Medium'"
       x="107.83379"
       y="114.23907"
       id="text3241"
       sodipodi:linespacing="125%"
       transform="translate(0,872.35975)"><tspan
         sodipodi:role="line"
         id="tspan3245"
         x="107.83379"
         y="114.23907" /></text>
    <text
       xml:space="preserve"
       style="font-size:10px;font-style:normal;font-variant:normal;font-weight:500;font-stretch:normal;line-height:125%;letter-spacing:0px;word-spacing:0px;fill:#000000;fill-opacity:1;stroke:none;font-family:'Terminus (TTF)';-inkscape-font-specification:'Terminus (TTF) Medium'"
       x="104.8127"
       y="1016.5361"
       id="text3249"
       sodipodi:linespacing="125%"><tspan
         sodipodi:role="line"
         id="tspan3251"
         x="104.8127"
         y="1016.5361">My Name</tspan><tspan
         sodipodi:role="line"
         x="104.8127"
         y="1029.0361"
         id="tspan3263">1234 Main St.</tspan><tspan
         sodipodi:role="line"
         x="104.8127"
         y="1041.5361"
         id="tspan3323">City, ST  12345</tspan></text>
    <text
       xml:space="preserve"
       style="font-size:10px;font-style:normal;font-variant:normal;font-weight:500;font-stretch:normal;text-align:end;line-height:125%;letter-spacing:0px;word-spacing:0px;text-anchor:end;fill:#000000;fill-opacity:1;stroke:none;font-family:'Terminus (TTF)';-inkscape-font-specification:'Terminus (TTF) Medium'"
       x="305.48822"
       y="1029.5061"
       id="text3289"
       sodipodi:linespacing="125%"><tspan
         sodipodi:role="line"
         id="tspan3291"
         x="305.48822"
         y="1029.5061">email@example.com</tspan><tspan
         sodipodi:role="line"
         x="305.48822"
         y="1042.0061"
         id="tspan3293">(555)555-5555</tspan></text>
    <text
       xml:space="preserve"
       style="font-size:12px;font-style:normal;font-variant:normal;font-weight:500;font-stretch:normal;line-height:125%;letter-spacing:0px;word-spacing:0px;fill:#000000;fill-opacity:1;stroke:none;font-family:'Terminus (TTF)';-inkscape-font-specification:'Terminus (TTF) Medium'"
       x="159.09903"
       y="152.42284"
       id="text3317"
       sodipodi:linespacing="125%"
       transform="translate(0,872.35975)"><tspan
         sodipodi:role="line"
         id="tspan3319"
         x="159.09903"
         y="152.42284" /></text>
  </g>
</svg>
